<mxfile>
    <diagram id="0pb8bj_WZJrNMkB9vcmM" name="ページ1">
        <mxGraphModel dx="1406" dy="431" grid="1" gridSize="10" guides="1" tooltips="1" connect="1" arrows="1" fold="1" page="1" pageScale="1" pageWidth="1169" pageHeight="1654" math="0" shadow="0">
            <root>
                <mxCell id="0"/>
                <mxCell id="1" parent="0"/>
                <mxCell id="225" value="" style="rounded=0;whiteSpace=wrap;html=1;fillColor=none;" parent="1" vertex="1">
                    <mxGeometry x="70" y="330" width="890" height="880" as="geometry"/>
                </mxCell>
                <mxCell id="216" value="" style="rounded=0;whiteSpace=wrap;html=1;" parent="1" vertex="1">
                    <mxGeometry x="110" y="552" width="760" height="618" as="geometry"/>
                </mxCell>
                <mxCell id="10" value="" style="group" parent="1" vertex="1" connectable="0">
                    <mxGeometry x="490" y="30" width="270" height="270" as="geometry"/>
                </mxCell>
                <mxCell id="6" value="" style="whiteSpace=wrap;html=1;aspect=fixed;" parent="10" vertex="1">
                    <mxGeometry width="270" height="270" as="geometry"/>
                </mxCell>
                <mxCell id="7" value="" style="shape=actor;whiteSpace=wrap;html=1;" parent="10" vertex="1">
                    <mxGeometry x="115" y="10" width="40" height="60" as="geometry"/>
                </mxCell>
                <mxCell id="8" value="Google認証" style="rounded=0;whiteSpace=wrap;html=1;" parent="10" vertex="1">
                    <mxGeometry x="75" y="90" width="120" height="60" as="geometry"/>
                </mxCell>
                <mxCell id="11" value="" style="group" parent="1" vertex="1" connectable="0">
                    <mxGeometry x="20" y="20" width="270" height="270" as="geometry"/>
                </mxCell>
                <mxCell id="2" value="" style="whiteSpace=wrap;html=1;aspect=fixed;" parent="11" vertex="1">
                    <mxGeometry width="270" height="270" as="geometry"/>
                </mxCell>
                <mxCell id="3" value="" style="shape=actor;whiteSpace=wrap;html=1;" parent="11" vertex="1">
                    <mxGeometry x="120" y="30" width="40" height="60" as="geometry"/>
                </mxCell>
                <mxCell id="4" value="アカウント作成" style="rounded=0;whiteSpace=wrap;html=1;" parent="11" vertex="1">
                    <mxGeometry x="80" y="110" width="120" height="60" as="geometry"/>
                </mxCell>
                <mxCell id="5" value="ログイン" style="rounded=0;whiteSpace=wrap;html=1;" parent="11" vertex="1">
                    <mxGeometry x="80" y="190" width="120" height="60" as="geometry"/>
                </mxCell>
                <mxCell id="14" style="edgeStyle=orthogonalEdgeStyle;rounded=0;orthogonalLoop=1;jettySize=auto;html=1;exitX=1;exitY=0.5;exitDx=0;exitDy=0;entryX=0;entryY=0.463;entryDx=0;entryDy=0;entryPerimeter=0;" parent="1" source="2" target="6" edge="1">
                    <mxGeometry relative="1" as="geometry"/>
                </mxCell>
                <mxCell id="187" value="" style="group" parent="1" vertex="1" connectable="0">
                    <mxGeometry x="-230" y="820" width="1290" height="1060" as="geometry"/>
                </mxCell>
                <mxCell id="197" value="" style="group" parent="187" vertex="1" connectable="0">
                    <mxGeometry x="420" y="-170.00384279475983" width="472.6027397260274" height="89.8107714701601" as="geometry"/>
                </mxCell>
                <mxCell id="198" value="" style="shape=note;whiteSpace=wrap;html=1;backgroundOutline=1;darkOpacity=0.05;" parent="197" vertex="1">
                    <mxGeometry width="472.6027397260274" height="89.8107714701601" as="geometry"/>
                </mxCell>
                <mxCell id="199" value="" style="outlineConnect=0;fontColor=#232F3E;gradientColor=none;fillColor=#D05C17;strokeColor=none;dashed=0;verticalLabelPosition=bottom;verticalAlign=top;align=center;html=1;fontSize=12;fontStyle=0;aspect=fixed;pointerEvents=1;shape=mxgraph.aws4.container_registry_image;" parent="197" vertex="1">
                    <mxGeometry x="9.452054794520548" y="9.879184861717611" width="70.05240174672488" height="70.05240174672488" as="geometry"/>
                </mxCell>
                <mxCell id="200" value="title" style="text;html=1;strokeColor=none;fillColor=none;align=center;verticalAlign=middle;whiteSpace=wrap;rounded=0;" parent="197" vertex="1">
                    <mxGeometry x="103.97260273972603" y="9.879184861717611" width="37.80821917808219" height="17.96215429403202" as="geometry"/>
                </mxCell>
                <mxCell id="201" value="description" style="text;html=1;strokeColor=none;fillColor=none;align=center;verticalAlign=middle;whiteSpace=wrap;rounded=0;" parent="197" vertex="1">
                    <mxGeometry x="120" y="40" width="40.68" height="13.89" as="geometry"/>
                </mxCell>
                <mxCell id="203" value="" style="strokeColor=#999999;verticalLabelPosition=bottom;shadow=0;dashed=0;verticalAlign=top;strokeWidth=2;html=1;shape=mxgraph.mockup.misc.editIcon;" parent="197" vertex="1">
                    <mxGeometry x="415.8904109589041" y="63.76564774381367" width="18.904109589041095" height="16.165938864628817" as="geometry"/>
                </mxCell>
                <mxCell id="204" value="" style="strokeColor=#999999;verticalLabelPosition=bottom;shadow=0;dashed=0;verticalAlign=top;strokeWidth=2;html=1;shape=mxgraph.mockup.misc.trashcanIcon;" parent="197" vertex="1">
                    <mxGeometry x="444.24657534246575" y="63.76564774381367" width="18.904109589041095" height="16.165938864628817" as="geometry"/>
                </mxCell>
                <mxCell id="213" value="" style="group" parent="187" vertex="1" connectable="0">
                    <mxGeometry x="419.9979452054795" y="-37.99983988355163" width="472.6027397260274" height="89.8107714701601" as="geometry"/>
                </mxCell>
                <mxCell id="206" value="" style="shape=note;whiteSpace=wrap;html=1;backgroundOutline=1;darkOpacity=0.05;" parent="213" vertex="1">
                    <mxGeometry width="472.6027397260274" height="89.8107714701601" as="geometry"/>
                </mxCell>
                <mxCell id="207" value="" style="outlineConnect=0;fontColor=#232F3E;gradientColor=none;fillColor=#D05C17;strokeColor=none;dashed=0;verticalLabelPosition=bottom;verticalAlign=top;align=center;html=1;fontSize=12;fontStyle=0;aspect=fixed;pointerEvents=1;shape=mxgraph.aws4.container_registry_image;" parent="213" vertex="1">
                    <mxGeometry x="9.452054794520548" y="9.879184861717611" width="70.05240174672488" height="70.05240174672488" as="geometry"/>
                </mxCell>
                <mxCell id="208" value="title" style="text;html=1;strokeColor=none;fillColor=none;align=center;verticalAlign=middle;whiteSpace=wrap;rounded=0;" parent="213" vertex="1">
                    <mxGeometry x="103.97260273972603" y="9.879184861717611" width="37.80821917808219" height="17.962154294032022" as="geometry"/>
                </mxCell>
                <mxCell id="209" value="description" style="text;html=1;strokeColor=none;fillColor=none;align=center;verticalAlign=middle;whiteSpace=wrap;rounded=0;" parent="213" vertex="1">
                    <mxGeometry x="122.87671232876713" y="35.924308588064044" width="37.80821917808219" height="17.962154294032022" as="geometry"/>
                </mxCell>
                <mxCell id="211" value="" style="strokeColor=#999999;verticalLabelPosition=bottom;shadow=0;dashed=0;verticalAlign=top;strokeWidth=2;html=1;shape=mxgraph.mockup.misc.editIcon;" parent="213" vertex="1">
                    <mxGeometry x="415.8904109589041" y="63.76564774381368" width="18.904109589041095" height="16.16593886462882" as="geometry"/>
                </mxCell>
                <mxCell id="212" value="" style="strokeColor=#999999;verticalLabelPosition=bottom;shadow=0;dashed=0;verticalAlign=top;strokeWidth=2;html=1;shape=mxgraph.mockup.misc.trashcanIcon;" parent="213" vertex="1">
                    <mxGeometry x="444.24657534246575" y="63.76564774381368" width="18.904109589041095" height="16.16593886462882" as="geometry"/>
                </mxCell>
                <mxCell id="81" value="" style="dashed=0;shape=rect;fillColor=#ffffff;strokeColor=#eeeeee;shadow=1;" parent="187" vertex="1">
                    <mxGeometry x="360" y="510" width="760" height="530" as="geometry"/>
                </mxCell>
                <mxCell id="82" value="Add your task" style="text;verticalAlign=middle;spacing=16;fontSize=21;fontStyle=1;resizeWidth=1;" parent="81" vertex="1">
                    <mxGeometry width="760" height="60" relative="1" as="geometry">
                        <mxPoint as="offset"/>
                    </mxGeometry>
                </mxCell>
                <mxCell id="83" value="Task Name" style="text;spacingLeft=16;fontColor=#808080;fontSize=13;spacingTop=6;resizeWidth=1;" parent="81" vertex="1">
                    <mxGeometry width="760" height="30" relative="1" as="geometry">
                        <mxPoint y="88" as="offset"/>
                    </mxGeometry>
                </mxCell>
                <mxCell id="84" value="stretch" style="text;fontSize=16;spacing=2;spacingLeft=16;fontStyle=0;fontColor=#000000;resizeWidth=1;" parent="81" vertex="1">
                    <mxGeometry width="760" height="30" relative="1" as="geometry">
                        <mxPoint y="115" as="offset"/>
                    </mxGeometry>
                </mxCell>
                <mxCell id="85" value="" style="shape=line;strokeWidth=1;noLabel=1;strokeColor=#eeeeee;resizeWidth=1;" parent="81" vertex="1">
                    <mxGeometry x="0.0462" width="689.7109826589596" height="20" relative="1" as="geometry">
                        <mxPoint y="140" as="offset"/>
                    </mxGeometry>
                </mxCell>
                <mxCell id="86" value="Description" style="text;spacingLeft=16;fontColor=#808080;fontSize=13;spacingTop=6;resizeWidth=1;" parent="81" vertex="1">
                    <mxGeometry width="760" height="30" relative="1" as="geometry">
                        <mxPoint y="166" as="offset"/>
                    </mxGeometry>
                </mxCell>
                <mxCell id="87" value="Training" style="text;fontSize=16;spacing=2;spacingLeft=16;fontStyle=0;fontColor=#000000;resizeWidth=1;" parent="81" vertex="1">
                    <mxGeometry width="760" height="30" relative="1" as="geometry">
                        <mxPoint y="193" as="offset"/>
                    </mxGeometry>
                </mxCell>
                <mxCell id="88" value="" style="dashed=0;shape=mxgraph.gmdl.triangle;strokeColor=none;fillColor=#707070;" parent="87" vertex="1">
                    <mxGeometry x="1" width="10" height="5" relative="1" as="geometry">
                        <mxPoint x="-26" y="13" as="offset"/>
                    </mxGeometry>
                </mxCell>
                <mxCell id="89" value="" style="dashed=0;shape=line;strokeWidth=1;noLabel=1;strokeColor=#eeeeee;resizeWidth=1;" parent="81" vertex="1">
                    <mxGeometry x="0.0462" width="689.7109826589596" height="20" relative="1" as="geometry">
                        <mxPoint y="218" as="offset"/>
                    </mxGeometry>
                </mxCell>
                <mxCell id="217" value="" style="outlineConnect=0;fontColor=#232F3E;gradientColor=none;fillColor=#D05C17;strokeColor=none;dashed=0;verticalLabelPosition=bottom;verticalAlign=top;align=center;html=1;fontSize=12;fontStyle=0;aspect=fixed;pointerEvents=1;shape=mxgraph.aws4.container_registry_image;" parent="81" vertex="1">
                    <mxGeometry x="50" y="292.1259842519685" width="140" height="140" as="geometry"/>
                </mxCell>
                <mxCell id="219" value="uoload image" style="strokeWidth=1;shadow=0;dashed=0;align=center;html=1;shape=mxgraph.mockup.buttons.button;strokeColor=#666666;fontColor=#ffffff;mainText=;buttonStyle=round;fontSize=17;fontStyle=1;fillColor=#008cff;whiteSpace=wrap;" parent="81" vertex="1">
                    <mxGeometry x="50" y="459.0551181102362" width="150" height="52.16535433070866" as="geometry"/>
                </mxCell>
                <mxCell id="218" value="image" style="text;html=1;strokeColor=none;fillColor=none;align=center;verticalAlign=middle;whiteSpace=wrap;rounded=0;" parent="81" vertex="1">
                    <mxGeometry x="40" y="240" width="80" height="20" as="geometry"/>
                </mxCell>
                <mxCell id="222" value="cancel" style="strokeWidth=1;shadow=0;dashed=0;align=center;html=1;shape=mxgraph.mockup.buttons.button;strokeColor=#666666;fontColor=#ffffff;mainText=;buttonStyle=round;fontSize=17;fontStyle=1;fillColor=#FF99FF;whiteSpace=wrap;" parent="81" vertex="1">
                    <mxGeometry x="415" y="450" width="150" height="50" as="geometry"/>
                </mxCell>
                <mxCell id="223" value="save" style="strokeWidth=1;shadow=0;dashed=0;align=center;html=1;shape=mxgraph.mockup.buttons.button;strokeColor=#666666;fontColor=#ffffff;mainText=;buttonStyle=round;fontSize=17;fontStyle=1;fillColor=#99FFFF;whiteSpace=wrap;" parent="81" vertex="1">
                    <mxGeometry x="580" y="450" width="150" height="50" as="geometry"/>
                </mxCell>
                <mxCell id="244" value="" style="rounded=0;whiteSpace=wrap;html=1;shadow=1;fillColor=none;" parent="187" vertex="1">
                    <mxGeometry x="309" y="490" width="981" height="570" as="geometry"/>
                </mxCell>
                <mxCell id="245" value="Label" style="label;whiteSpace=wrap;html=1;image=img/clipart/Gear_128x128.png;shadow=1;fillColor=none;" parent="187" vertex="1">
                    <mxGeometry x="1150" y="490" width="140" height="60" as="geometry"/>
                </mxCell>
                <mxCell id="123" value="" style="shape=ellipse;fillColor=#FF4081;strokeColor=none;shadow=1;aspect=fixed;" parent="1" vertex="1">
                    <mxGeometry x="784.5" y="1090" width="56" height="56" as="geometry"/>
                </mxCell>
                <mxCell id="124" value="" style="dashed=0;html=1;shape=mxgraph.gmdl.plus;strokeColor=#ffffff;strokeWidth=2;shadow=0;" parent="123" vertex="1">
                    <mxGeometry x="20" y="20" width="16" height="16" as="geometry"/>
                </mxCell>
                <mxCell id="224" value="" style="endArrow=classic;html=1;exitX=0.531;exitY=0.563;exitDx=0;exitDy=0;exitPerimeter=0;entryX=0.824;entryY=-0.017;entryDx=0;entryDy=0;entryPerimeter=0;" parent="1" source="124" target="82" edge="1">
                    <mxGeometry width="50" height="50" relative="1" as="geometry">
                        <mxPoint x="780" y="1240" as="sourcePoint"/>
                        <mxPoint x="770" y="1260" as="targetPoint"/>
                    </mxGeometry>
                </mxCell>
                <mxCell id="226" value="AllTasks.js" style="label;whiteSpace=wrap;html=1;image=img/clipart/Gear_128x128.png;fillColor=#FFFFFF;" parent="1" vertex="1">
                    <mxGeometry x="850" y="330" width="110" height="40" as="geometry"/>
                </mxCell>
                <mxCell id="228" value="" style="rounded=0;whiteSpace=wrap;html=1;fillColor=none;" parent="1" vertex="1">
                    <mxGeometry x="95" y="380" width="845" height="200" as="geometry"/>
                </mxCell>
                <mxCell id="64" value="na" style="dashed=0;shape=rect;fillColor=#ffffff;strokeColor=none;shadow=1;" parent="1" vertex="1">
                    <mxGeometry x="110" y="400" width="758" height="152" as="geometry"/>
                </mxCell>
                <mxCell id="65" value="" style="dashed=0;shape=rect;fillColor=#00A0B4;strokeColor=none;resizeWidth=1;" parent="64" vertex="1">
                    <mxGeometry width="758" height="32" relative="1" as="geometry"/>
                </mxCell>
                <mxCell id="121" value="sign-out" style="text;html=1;strokeColor=none;fillColor=none;align=center;verticalAlign=middle;whiteSpace=wrap;rounded=0;" parent="64" vertex="1">
                    <mxGeometry x="620" width="85" height="30" as="geometry"/>
                </mxCell>
                <mxCell id="69" value="Task Lists" style="dashed=0;shape=rect;strokeColor=none;fillColor=#00BCD4;resizeWidth=1;resizeHeight=1;fontSize=20;fontColor=#FFFFFF;spacingTop=9;verticalAlign=top;align=left;spacingLeft=72;" parent="64" vertex="1">
                    <mxGeometry width="758" height="150" relative="1" as="geometry">
                        <mxPoint y="30" as="offset"/>
                    </mxGeometry>
                </mxCell>
                <mxCell id="71" value="All" style="text;fontSize=13;fontColor=#FFFFFF;verticalAlign=middle;align=center;" parent="69" vertex="1">
                    <mxGeometry y="1" width="106" height="48" relative="1" as="geometry">
                        <mxPoint x="68" y="-48" as="offset"/>
                    </mxGeometry>
                </mxCell>
                <mxCell id="72" value="To do" style="text;fontSize=13;fontColor=#FFFFFF;verticalAlign=middle;align=center;textOpacity=80;" parent="69" vertex="1">
                    <mxGeometry y="1" width="106" height="48" relative="1" as="geometry">
                        <mxPoint x="174" y="-48" as="offset"/>
                    </mxGeometry>
                </mxCell>
                <mxCell id="73" value="Done" style="text;fontSize=13;fontColor=#FFFFFF;verticalAlign=middle;align=center;textOpacity=80;" parent="69" vertex="1">
                    <mxGeometry y="1" width="106" height="48" relative="1" as="geometry">
                        <mxPoint x="280" y="-48" as="offset"/>
                    </mxGeometry>
                </mxCell>
                <mxCell id="78" value="" style="dashed=0;shape=rect;strokeColor=none;fillColor=#F1FB8F;" parent="69" vertex="1">
                    <mxGeometry y="1" width="106" height="4" relative="1" as="geometry">
                        <mxPoint x="68" y="-3" as="offset"/>
                    </mxGeometry>
                </mxCell>
                <mxCell id="79" value="" style="dashed=0;shape=mxgraph.gmdl.search;strokeColor=#ffffff;fillColor=none;strokeWidth=2;" parent="69" vertex="1">
                    <mxGeometry x="1" width="16" height="16" relative="1" as="geometry">
                        <mxPoint x="-358" y="98" as="offset"/>
                    </mxGeometry>
                </mxCell>
                <mxCell id="234" value="" style="rounded=0;whiteSpace=wrap;html=1;shadow=1;fillColor=none;" parent="69" vertex="1">
                    <mxGeometry x="60" y="90" width="550" height="60" as="geometry"/>
                </mxCell>
                <mxCell id="235" value="Navbar.js" style="label;whiteSpace=wrap;html=1;image=img/clipart/Gear_128x128.png;shadow=1;" parent="69" vertex="1">
                    <mxGeometry x="480" y="90" width="130" height="30" as="geometry"/>
                </mxCell>
                <mxCell id="246" value="" style="rounded=0;whiteSpace=wrap;html=1;fillColor=none;" vertex="1" parent="69">
                    <mxGeometry x="170" y="90" width="120" height="70" as="geometry"/>
                </mxCell>
                <mxCell id="247" value="Tasks.js" style="label;whiteSpace=wrap;html=1;image=img/clipart/Gear_128x128.png;fillColor=none;" vertex="1" parent="69">
                    <mxGeometry x="193" y="80" width="74" height="30" as="geometry"/>
                </mxCell>
                <mxCell id="248" value="" style="rounded=0;whiteSpace=wrap;html=1;fillColor=none;" vertex="1" parent="69">
                    <mxGeometry x="300" y="100" width="100" height="50" as="geometry"/>
                </mxCell>
                <mxCell id="249" value="Done.js" style="label;whiteSpace=wrap;html=1;image=img/clipart/Gear_128x128.png;fillColor=none;" vertex="1" parent="69">
                    <mxGeometry x="310" y="90" width="90" height="30" as="geometry"/>
                </mxCell>
                <mxCell id="230" value="Header.js" style="label;whiteSpace=wrap;html=1;image=img/clipart/Gear_128x128.png;fillColor=#FFFFFF;" parent="1" vertex="1">
                    <mxGeometry x="820" y="380" width="120" height="40" as="geometry"/>
                </mxCell>
                <mxCell id="237" value="" style="rounded=0;whiteSpace=wrap;html=1;shadow=1;fillColor=none;" parent="1" vertex="1">
                    <mxGeometry x="160" y="630" width="540" height="130" as="geometry"/>
                </mxCell>
                <mxCell id="238" value="Task.js" style="label;whiteSpace=wrap;html=1;image=img/clipart/Gear_128x128.png;shadow=1;fillColor=none;" parent="1" vertex="1">
                    <mxGeometry x="575" y="630" width="125" height="40" as="geometry"/>
                </mxCell>
                <mxCell id="241" value="" style="rounded=0;whiteSpace=wrap;html=1;shadow=1;fillColor=none;" parent="1" vertex="1">
                    <mxGeometry x="550" y="780" width="120" height="60" as="geometry"/>
                </mxCell>
                <mxCell id="242" value="" style="rounded=0;whiteSpace=wrap;html=1;shadow=1;fillColor=none;" parent="1" vertex="1">
                    <mxGeometry x="130" y="610" width="720" height="300" as="geometry"/>
                </mxCell>
                <mxCell id="243" value="TakList.js" style="label;whiteSpace=wrap;html=1;image=img/clipart/Gear_128x128.png;shadow=1;fillColor=none;" parent="1" vertex="1">
                    <mxGeometry x="730" y="610" width="120" height="40" as="geometry"/>
                </mxCell>
            </root>
        </mxGraphModel>
    </diagram>
</mxfile>